<?xml version="1.0" encoding="UTF-8" ?>
<!-- Skitch 1.0 -->
<svg xmlns="http://www.w3.org/2000/svg" xmlns:xlink="http://www.w3.org/1999/xlink" xmlns:ev="http://www.w3.org/2001/xml-events" version="1.1" baseProfile="full" width="253px" height="242px" overflow="hidden" skitchDocumentType="3" skitchVisibleWidth="677.404663" skitchVisibleHeight="627.789795" skitchCustomColor="rgb(99,105,117)" skitchCustomColorAlpha="1.000000" skitchBrushColor="rgb(255,0,0)" skitchBrushColorAlpha="1.000000" skitchBrushSize="4.125000" skitchTool="3" skitchSourceURL="" skitchExternalAppDocumentPath="">
  <g>
    <path d="M10.976,13.707 C10.772,13.911 10.482,13.879 10.261,13.729 C9.904,13.487 9.424,12.977 9.087,12.670 C7.431,11.162 5.775,9.654 4.118,8.146 C3.817,7.872 2.982,7.186 2.781,6.913 C2.623,6.697 2.600,6.399 2.801,6.198 C3.006,5.993 3.295,6.026 3.517,6.176 C3.873,6.418 4.354,6.928 4.690,7.234 C6.347,8.742 8.003,10.250 9.659,11.758 C9.961,12.033 10.796,12.719 10.996,12.992 C11.155,13.208 11.177,13.506 10.976,13.707 z" fill="darkgreen" />
    <path d="M42,11 C52,0 70,02 85,0 C98,0 99,0 99,0 L134,0 C134,0 135,0 148,0 C165,3 181,0 193,14 C217,49 220,92 220,92 L24,92 C24,92 21,47 42,11" fill="rgb(124,80,24)"></path>
<!--
    <path d="M11.491 5.370 C11.605 5.541 11.596 5.754 11.503 5.931 C11.373 6.181 10.499 7.003 10.246 7.264 C8.605 8.957 6.964 10.650 5.323 12.343 C5.018 12.659 4.712 12.974 4.406 13.290 C4.266 13.434 4.131 13.611 3.967 13.727 C3.750 13.883 3.455 13.909 3.253 13.707 C3.050 13.503 3.079 13.210 3.232 12.991 C3.347 12.825 3.516 12.684 3.656 12.540 C3.990 12.195 4.324 11.851 4.657 11.507 C6.298 9.813 7.939 8.120 9.580 6.427 C9.823 6.177 10.546 5.348 10.792 5.218 C11.030 5.092 11.335 5.135 11.491 5.370 z" fill="rgb(255,0,0)" />
    <path d="M18.607 5.812 C18.980 5.747 19.539 5.872 19.852 5.949 C21.310 6.309 22.558 7.307 23.179 8.683 C23.496 9.385 23.620 10.184 23.544 10.950 C23.289 13.499 21.020 15.283 18.514 15.230 C16.247 15.181 14.122 13.544 13.760 11.251 C13.389 8.900 14.877 6.714 17.121 6.032 C17.571 5.895 18.079 5.781 18.607 5.812 zM18.577 6.845 C18.199 6.911 17.625 6.982 17.387 7.057 C15.986 7.505 14.888 8.751 14.771 10.240 C14.540 13.159 17.738 14.936 20.265 13.832 C22.281 12.951 23.177 10.516 21.943 8.618 C21.414 7.806 20.575 7.223 19.638 6.989 C19.382 6.924 18.860 6.902 18.577 6.845 z" fill="rgb(255,0,0)" />
    <path d="M5.794 17.190 C5.794 16.897 6.031 16.660 6.324 16.660 C8.884 16.660 11.444 16.660 14.003 16.660 C14.296 16.660 14.533 16.897 14.533 17.190 C14.533 19.603 14.533 22.016 14.533 24.429 C14.533 24.722 14.296 24.959 14.003 24.959 C11.444 24.959 8.884 24.959 6.324 24.959 C6.031 24.959 5.794 24.722 5.794 24.429 C5.794 22.016 5.794 19.603 5.794 17.190 zM6.854 17.721 C6.854 19.780 6.854 21.839 6.854 23.898 C9.061 23.898 11.267 23.898 13.474 23.898 C13.474 21.839 13.474 19.780 13.474 17.721 C11.267 17.721 9.061 17.721 6.854 17.721 z" fill="rgb(255,0,0)" />
-->
  </g>
</svg>
